<svg width="35" height="35" viewBox="0 0 35 35" fill="none" xmlns="http://www.w3.org/2000/svg">
<g id="Group">
<g id="Layer 2">
<path id="10.Linkedin" d="M17.5 0C14.0388 0 10.6554 1.02636 7.77753 2.94928C4.89967 4.87221 2.65665 7.60533 1.33212 10.803C0.00758243 14.0007 -0.338976 17.5194 0.336265 20.9141C1.01151 24.3087 2.67822 27.4269 5.12564 29.8744C7.57306 32.3218 10.6913 33.9885 14.0859 34.6637C17.4806 35.339 20.9993 34.9924 24.197 33.6679C27.3947 32.3434 30.1278 30.1003 32.0507 27.2225C33.9737 24.3446 35 20.9612 35 17.5C35 12.8587 33.1563 8.40752 29.8744 5.12563C26.5925 1.84374 22.1413 0 17.5 0ZM12.4112 26.7105H8.59343V14.4122H12.4112V26.7105ZM10.5 12.7336C10.0606 12.7354 9.63058 12.6069 9.26422 12.3643C8.89785 12.1218 8.61161 11.7761 8.44169 11.3709C8.27176 10.9657 8.22578 10.5192 8.30954 10.0879C8.39331 9.65659 8.60307 9.25978 8.9123 8.94765C9.22154 8.63552 9.61637 8.42207 10.0469 8.33429C10.4774 8.24651 10.9243 8.28833 11.331 8.45447C11.7378 8.62061 12.0862 8.90361 12.3321 9.2677C12.5781 9.63179 12.7106 10.0606 12.7128 10.5C12.7141 11.0892 12.482 11.6549 12.0673 12.0734C11.6527 12.4919 11.0892 12.7293 10.5 12.7336ZM26.7105 26.7105H22.8951V20.7237C22.8951 19.2961 22.8674 17.4655 20.9102 17.4655C18.953 17.4655 18.6076 19.0174 18.6076 20.6201V26.7105H14.8059V14.4122H18.4694V16.0885H18.5224C19.0313 15.1214 20.277 14.1013 22.1352 14.1013C25.999 14.1013 26.7105 16.648 26.7105 19.9546V26.7105Z" fill="#F9E1A1"/>
</g>
</g>
</svg>
