<svg width="228" height="44" viewBox="0 0 228 44" fill="none" xmlns="http://www.w3.org/2000/svg">
<path d="M5.5 33V29.3333H38.5V33H5.5ZM5.5 23.8333V20.1667H38.5V23.8333H5.5ZM5.5 14.6667V11H38.5V14.6667H5.5Z" fill="#151515"/>
<path d="M68.7078 38.8052L68.2013 37.5039H65.4898L64.9832 38.8052H64L66.2794 33.1858H67.4266L69.7061 38.8052H68.7078ZM65.8175 36.6757H67.8735L66.8456 34.0434L65.8175 36.6757Z" fill="#151515"/>
<path d="M74.4443 33.1838V34.0415H71.5988V38.8033H70.6602V33.1838H74.4443Z" fill="#151515"/>
<path d="M77.8259 33.1858C79.0625 33.1858 79.8372 33.8512 79.8372 34.916C79.8372 35.9955 79.0625 36.661 77.8259 36.661H76.3956V38.8052H75.457V33.1858H77.8259ZM77.7067 35.8624C78.4814 35.8624 78.8837 35.5371 78.8837 34.9307C78.8837 34.3097 78.4814 33.9991 77.7067 33.9991H76.3956V35.8624H77.7067Z" fill="#151515"/>
<path d="M81.9073 37.9771H84.9466V38.8052H80.9688V33.1858H84.872V34.0139H81.9073V35.5222H84.2016V36.3208H81.9073V37.9771Z" fill="#151515"/>
<path d="M89.8779 33.1858V34.0434H87.0323V38.8052H86.0938V33.1858H89.8779Z" fill="#151515"/>
<path d="M94.0496 38.8052L93.5432 37.5039H90.8316L90.3251 38.8052H89.3418L91.6213 33.1858H92.7684L95.0479 38.8052H94.0496ZM91.1594 36.6757H93.2153L92.1874 34.0434L91.1594 36.6757Z" fill="#151515"/>
<path d="M99.6811 33.1858V34.0434H97.6699V38.8052H96.7164V34.0434H94.7051V33.1858H99.6811Z" fill="#151515"/>
<path d="M102.676 38.8788C101.022 38.8788 99.9492 37.7402 99.9492 35.9952C99.9492 34.2798 101.067 33.1116 102.676 33.1116C104.329 33.1116 105.402 34.2502 105.402 35.9952C105.402 37.7106 104.285 38.8788 102.676 38.8788ZM102.676 38.0655C103.748 38.0655 104.434 37.2373 104.434 35.9952C104.434 34.753 103.748 33.9248 102.676 33.9248C101.603 33.9248 100.918 34.753 100.918 35.9952C100.918 37.2373 101.603 38.0655 102.676 38.0655Z" fill="#151515"/>
<path d="M109.037 33.1838C110.273 33.1838 111.048 33.8493 111.048 34.914C111.048 35.9935 110.273 36.659 109.037 36.659H107.607V38.8033H106.668V33.1838H109.037ZM108.918 35.8604C109.692 35.8604 110.095 35.5351 110.095 34.9288C110.095 34.3077 109.692 33.9972 108.918 33.9972H107.607V35.8604H108.918Z" fill="#151515"/>
<path d="M118.155 35.9363C118.676 36.1729 118.974 36.6461 118.974 37.2673C118.974 38.2137 118.289 38.8052 117.157 38.8052H114.564V33.1858H117.112C118.185 33.1858 118.87 33.7625 118.87 34.6793C118.87 35.2413 118.617 35.6849 118.155 35.9363ZM116.963 33.9843H115.473V35.5371H116.963C117.619 35.5371 117.946 35.2856 117.946 34.7533C117.946 34.2358 117.619 33.9843 116.963 33.9843ZM116.978 38.0066C117.678 38.0066 118.036 37.7257 118.036 37.1637C118.036 36.6018 117.678 36.3208 116.978 36.3208H115.473V38.0066H116.978Z" fill="#151515"/>
<path d="M121.181 37.9751H124.22V38.8033H120.242V33.1838H124.145V34.012H121.181V35.5203H123.475V36.3189H121.181V37.9751Z" fill="#151515"/>
<path d="M129.642 33.1858V34.0434H127.631V38.8052H126.677V34.0434H124.666V33.1858H129.642Z" fill="#151515"/>
<path d="M131.579 37.9771H134.618V38.8052H130.641V33.1858H134.543V34.0139H131.579V35.5222H133.873V36.3208H131.579V37.9771Z" fill="#151515"/>
<path d="M138.134 33.1858C139.371 33.1858 140.145 33.8512 140.145 34.916C140.145 35.9955 139.371 36.661 138.134 36.661H136.704V38.8052H135.766V33.1858H138.134ZM138.015 35.8624C138.79 35.8624 139.192 35.5371 139.192 34.9307C139.192 34.3097 138.79 33.9991 138.015 33.9991H136.704V35.8624H138.015Z" fill="#151515"/>
<path d="M144.793 38.8052L144.287 37.5039H141.575L141.069 38.8052H140.086L142.366 33.1858H143.513L145.792 38.8052H144.793ZM141.903 36.6757H143.959L142.931 34.0434L141.903 36.6757Z" fill="#151515"/>
<path d="M150.515 33.1838H151.454V38.8033H150.515V36.3484H147.685V38.8033H146.746V33.1838H147.685V35.4908H150.515V33.1838Z" fill="#151515"/>
<path d="M155.415 38.8788C153.776 38.8788 152.719 37.7402 152.719 35.9952C152.719 34.2798 153.821 33.1116 155.415 33.1116C156.578 33.1116 157.457 33.7031 157.784 34.7678L156.906 35.0783C156.681 34.3094 156.16 33.9248 155.4 33.9248C154.372 33.9248 153.687 34.7382 153.687 35.9952C153.687 37.2817 154.343 38.0655 155.4 38.0655C156.16 38.0655 156.681 37.681 156.906 36.9121L157.784 37.2226C157.457 38.2578 156.578 38.8788 155.415 38.8788Z" fill="#151515"/>
<path d="M161.3 35.3281C162.551 35.3281 163.326 35.9935 163.326 37.0731C163.326 38.1378 162.551 38.8033 161.3 38.8033H158.916V33.1838H159.854V35.3281H161.3ZM161.21 37.9899C161.985 37.9899 162.372 37.6794 162.372 37.0582C162.372 36.452 161.985 36.1267 161.21 36.1267H159.854V37.9899H161.21Z" fill="#151515"/>
<path d="M168.273 38.8033L166.307 36.1118L165.458 36.9399V38.8033H164.52V33.1838H165.458V35.8604L168.11 33.1838H169.287L166.962 35.4611L169.42 38.8033H168.273Z" fill="#151515"/>
<path d="M174.216 33.1838H175.139V38.8033H174.201V34.6182L171.311 38.8033H170.402V33.1838H171.341V37.354L174.216 33.1838Z" fill="#151515"/>
<path d="M181.488 38.8033H180.4L178.792 36.585L177.212 38.8033H176.125L178.255 35.9343L176.258 33.1838H177.362L178.821 35.2394L180.297 33.1838H181.354L179.373 35.9048L181.488 38.8033Z" fill="#151515"/>
<path d="M184.855 38.8033V33.1838H185.794V38.8033H184.855Z" fill="#151515"/>
<path d="M191.261 33.1858H192.2V38.8052H191.261V36.3504H188.43V38.8052H187.492V33.1858H188.43V35.4927H191.261V33.1858Z" fill="#151515"/>
<path d="M193.898 38.8033V33.1838H194.838V38.8033H193.898Z" fill="#151515"/>
<path d="M201.795 37.9475V39.9882H200.871V38.8052H196.535V33.1858H197.473V37.9475H200.185V33.1858H201.123V37.9475H201.795Z" fill="#151515"/>
<path d="M202.926 38.8052V33.1858H203.865V38.8052H202.926Z" fill="#151515"/>
<path d="M209.526 38.8052L209.019 37.5039H206.308L205.801 38.8052H204.818L207.097 33.1858H208.244L210.524 38.8052H209.526ZM206.636 36.6757H208.691L207.664 34.0434L206.636 36.6757Z" fill="#151515"/>
<path d="M215.158 33.1858V34.0434H213.147V38.8052H212.194V34.0434H210.182V33.1858H215.158Z" fill="#151515"/>
<path d="M219.97 33.1858H220.894V38.8052H219.955V34.6202L217.065 38.8052H216.156V33.1858H217.094V37.3559L219.97 33.1858Z" fill="#151515"/>
<path d="M226.183 35.9363C226.704 36.1729 227.002 36.6461 227.002 37.2673C227.002 38.2137 226.316 38.8052 225.184 38.8052H222.592V33.1858H225.14C226.212 33.1858 226.898 33.7625 226.898 34.6793C226.898 35.2413 226.644 35.6849 226.183 35.9363ZM224.991 33.9843H223.5V35.5371H224.991C225.646 35.5371 225.974 35.2856 225.974 34.7533C225.974 34.2358 225.646 33.9843 224.991 33.9843ZM225.005 38.0066C225.706 38.0066 226.063 37.7257 226.063 37.1637C226.063 36.6018 225.706 36.3208 225.005 36.3208H223.5V38.0066H225.005Z" fill="#151515"/>
<path d="M81.4291 14.1129L89.9456 4.01196H81.6272L77.3689 9.65662L73.0117 4.01196H64.5942L73.2097 14.1129L64 25.1052H72.1204L77.2699 18.6683L82.2214 25.1052H90.5398L81.4291 14.1129Z" fill="#151515"/>
<path d="M101.828 19.0647V9.06274H95.3906V25.1055H103.61L110.245 14.6084V25.1055H116.781V9.06274H108.363L101.828 19.0647Z" fill="#151515"/>
<path d="M130.35 14.015C130.944 13.7179 131.637 13.5198 132.33 13.5198C133.321 13.5198 134.212 13.7179 134.905 14.2131C135.598 14.7082 135.994 15.2033 136.39 15.9956H142.728C142.53 14.5101 142.035 13.4208 141.144 12.3315C140.253 11.2422 138.965 10.3509 137.48 9.75674C135.994 9.16257 134.311 8.86548 132.429 8.86548C130.35 8.86548 128.567 9.26159 126.983 9.9548C125.398 10.648 124.21 11.6383 123.319 12.9257C122.427 14.2131 122.031 15.6985 122.031 17.382C122.031 19.0655 122.427 20.5509 123.319 21.8383C124.21 23.1257 125.398 24.116 126.983 24.8092C128.567 25.5024 130.35 25.8985 132.429 25.8985C134.311 25.8985 135.994 25.6014 137.48 25.0072C138.965 24.4131 140.253 23.5218 141.144 22.4325C142.035 21.3431 142.629 20.2538 142.728 18.7684H136.39C135.895 19.7587 135.598 20.0558 134.905 20.5509C134.212 21.0461 133.42 21.2441 132.33 21.2441C131.538 21.2441 130.845 21.1451 130.35 20.848C129.756 20.5509 129.359 20.1548 129.062 19.5606C128.765 18.9664 128.567 18.2732 128.567 17.481C128.567 16.6888 128.765 15.9956 129.062 15.4014C129.359 14.7082 129.756 14.2131 130.35 14.015Z" fill="#151515"/>
<path d="M147.283 9.06274V13.8161H153.423V25.1055H159.959V13.8161H166V9.06274H147.283Z" fill="#151515"/>
<path fill-rule="evenodd" clip-rule="evenodd" d="M228.001 29.8987H64V28.8987H228.001V29.8987Z" fill="#151515"/>
</svg>
