<svg width="164" height="36" viewBox="0 0 164 36" fill="none" xmlns="http://www.w3.org/2000/svg">
<path d="M4.70785 34.7932L4.20126 33.4919H1.48983L0.983238 34.7932H0L2.27941 29.1738H3.42665L5.70606 34.7932H4.70785ZM1.81754 32.6638H3.87355L2.84559 30.0315L1.81754 32.6638Z" fill="#FCFCFC"/>
<path d="M10.4443 29.1719V30.0295H7.59877V34.7913H6.66016V29.1719H10.4443Z" fill="#FCFCFC"/>
<path d="M13.8259 29.1738C15.0625 29.1738 15.8372 29.8393 15.8372 30.904C15.8372 31.9835 15.0625 32.649 13.8259 32.649H12.3956V34.7932H11.457V29.1738H13.8259ZM13.7067 31.8504C14.4814 31.8504 14.8837 31.5251 14.8837 30.9188C14.8837 30.2977 14.4814 29.9872 13.7067 29.9872H12.3956V31.8504H13.7067Z" fill="#FCFCFC"/>
<path d="M17.9073 33.9651H20.9466V34.7932H16.9688V29.1738H20.872V30.002H17.9073V31.5103H20.2016V32.3089H17.9073V33.9651Z" fill="#FCFCFC"/>
<path d="M25.8779 29.1738V30.0315H23.0323V34.7932H22.0938V29.1738H25.8779Z" fill="#FCFCFC"/>
<path d="M30.0496 34.7932L29.5432 33.4919H26.8316L26.3251 34.7932H25.3418L27.6213 29.1738H28.7684L31.0479 34.7932H30.0496ZM27.1594 32.6638H29.2153L28.1874 30.0315L27.1594 32.6638Z" fill="#FCFCFC"/>
<path d="M35.6811 29.1738V30.0315H33.6699V34.7932H32.7164V30.0315H30.7051V29.1738H35.6811Z" fill="#FCFCFC"/>
<path d="M38.6756 34.8669C37.0219 34.8669 35.9492 33.7282 35.9492 31.9832C35.9492 30.2678 37.0666 29.0996 38.6756 29.0996C40.3294 29.0996 41.402 30.2383 41.402 31.9832C41.402 33.6986 40.2846 34.8669 38.6756 34.8669ZM38.6756 34.0535C39.7483 34.0535 40.4336 33.2254 40.4336 31.9832C40.4336 30.741 39.7483 29.9129 38.6756 29.9129C37.6029 29.9129 36.9177 30.741 36.9177 31.9832C36.9177 33.2254 37.6029 34.0535 38.6756 34.0535Z" fill="#FCFCFC"/>
<path d="M45.0368 29.1719C46.2733 29.1719 47.0481 29.8373 47.0481 30.902C47.0481 31.9815 46.2733 32.6471 45.0368 32.6471H43.6066V34.7913H42.668V29.1719H45.0368ZM44.9176 31.8485C45.6923 31.8485 46.0946 31.5232 46.0946 30.9168C46.0946 30.2958 45.6923 29.9852 44.9176 29.9852H43.6066V31.8485H44.9176Z" fill="#FCFCFC"/>
<path d="M54.155 31.9243C54.6765 32.1609 54.9743 32.6342 54.9743 33.2553C54.9743 34.2017 54.2891 34.7932 53.1568 34.7932H50.5645V29.1738H53.1121C54.1848 29.1738 54.8701 29.7506 54.8701 30.6674C54.8701 31.2294 54.6168 31.673 54.155 31.9243ZM52.9631 29.9723H51.4733V31.5251H52.9631C53.6187 31.5251 53.9464 31.2737 53.9464 30.7413C53.9464 30.2238 53.6187 29.9723 52.9631 29.9723ZM52.978 33.9947C53.6783 33.9947 54.0358 33.7137 54.0358 33.1518C54.0358 32.5899 53.6783 32.3089 52.978 32.3089H51.4733V33.9947H52.978Z" fill="#FCFCFC"/>
<path d="M57.1808 33.9632H60.2199V34.7913H56.2422V29.1719H60.1455V30H57.1808V31.5083H59.4751V32.3069H57.1808V33.9632Z" fill="#FCFCFC"/>
<path d="M65.6423 29.1738V30.0315H63.6308V34.7932H62.6773V30.0315H60.666V29.1738H65.6423Z" fill="#FCFCFC"/>
<path d="M67.5789 33.9651H70.6176V34.7932H66.6406V29.1738H70.5433V30.002H67.5789V31.5103H69.873V32.3089H67.5789V33.9651Z" fill="#FCFCFC"/>
<path d="M74.1341 29.1738C75.3708 29.1738 76.145 29.8393 76.145 30.904C76.145 31.9835 75.3708 32.649 74.1341 32.649H72.7039V34.7932H71.7656V29.1738H74.1341ZM74.0149 31.8504C74.7901 31.8504 75.1915 31.5251 75.1915 30.9188C75.1915 30.2977 74.7901 29.9872 74.0149 29.9872H72.7039V31.8504H74.0149Z" fill="#FCFCFC"/>
<path d="M80.7933 34.7932L80.287 33.4919H77.5753L77.069 34.7932H76.0859L78.3657 29.1738H79.5128L81.7916 34.7932H80.7933ZM77.9033 32.6638H79.959L78.9311 30.0315L77.9033 32.6638Z" fill="#FCFCFC"/>
<path d="M86.5152 29.1719H87.4544V34.7913H86.5152V32.3364H83.6853V34.7913H82.7461V29.1719H83.6853V31.4788H86.5152V29.1719Z" fill="#FCFCFC"/>
<path d="M91.4152 34.8669C89.7762 34.8669 88.7188 33.7282 88.7188 31.9832C88.7188 30.2678 89.821 29.0996 91.4152 29.0996C92.5775 29.0996 93.4566 29.6911 93.7837 30.7559L92.9055 31.0664C92.6815 30.2974 92.1599 29.9129 91.4 29.9129C90.3721 29.9129 89.6865 30.7262 89.6865 31.9832C89.6865 33.2698 90.3425 34.0535 91.4 34.0535C92.1599 34.0535 92.6815 33.6691 92.9055 32.9001L93.7837 33.2106C93.4566 34.2458 92.5775 34.8669 91.4152 34.8669Z" fill="#FCFCFC"/>
<path d="M97.2997 31.3161C98.5507 31.3161 99.3259 31.9815 99.3259 33.0611C99.3259 34.1259 98.5507 34.7913 97.2997 34.7913H94.916V29.1719H95.8543V31.3161H97.2997ZM97.2101 33.9779C97.9853 33.9779 98.3724 33.6674 98.3724 33.0463C98.3724 32.44 97.9853 32.1147 97.2101 32.1147H95.8543V33.9779H97.2101Z" fill="#FCFCFC"/>
<path d="M104.273 34.7913L102.307 32.0998L101.458 32.928V34.7913H100.52V29.1719H101.458V31.8485L104.11 29.1719H105.287L102.962 31.4492L105.42 34.7913H104.273Z" fill="#FCFCFC"/>
<path d="M110.216 29.1719H111.139V34.7913H110.201V30.6063L107.311 34.7913H106.402V29.1719H107.341V33.342L110.216 29.1719Z" fill="#FCFCFC"/>
<path d="M117.488 34.7913H116.4L114.792 32.5731L113.212 34.7913H112.125L114.255 31.9224L112.258 29.1719H113.362L114.821 31.2274L116.297 29.1719H117.354L115.373 31.8929L117.488 34.7913Z" fill="#FCFCFC"/>
<path d="M120.855 34.7913V29.1719H121.794V34.7913H120.855Z" fill="#FCFCFC"/>
<path d="M127.261 29.1738H128.2V34.7932H127.261V32.3384H124.43V34.7932H123.492V29.1738H124.43V31.4807H127.261V29.1738Z" fill="#FCFCFC"/>
<path d="M129.898 34.7913V29.1719H130.838V34.7913H129.898Z" fill="#FCFCFC"/>
<path d="M137.795 33.9355V35.9763H136.871V34.7932H132.535V29.1738H133.473V33.9355H136.185V29.1738H137.123V33.9355H137.795Z" fill="#FCFCFC"/>
<path d="M138.926 34.7932V29.1738H139.865V34.7932H138.926Z" fill="#FCFCFC"/>
<path d="M145.526 34.7932L145.019 33.4919H142.308L141.801 34.7932H140.818L143.097 29.1738H144.244L146.524 34.7932H145.526ZM142.636 32.6638H144.691L143.664 30.0315L142.636 32.6638Z" fill="#FCFCFC"/>
<path d="M151.158 29.1738V30.0315H149.147V34.7932H148.194V30.0315H146.182V29.1738H151.158Z" fill="#FCFCFC"/>
<path d="M155.97 29.1738H156.894V34.7932H155.955V30.6082L153.065 34.7932H152.156V29.1738H153.094V33.344L155.97 29.1738Z" fill="#FCFCFC"/>
<path d="M162.183 31.9243C162.704 32.1609 163.002 32.6342 163.002 33.2553C163.002 34.2017 162.316 34.7932 161.184 34.7932H158.592V29.1738H161.14C162.212 29.1738 162.898 29.7506 162.898 30.6674C162.898 31.2294 162.644 31.673 162.183 31.9243ZM160.991 29.9723H159.5V31.5251H160.991C161.646 31.5251 161.974 31.2737 161.974 30.7413C161.974 30.2238 161.646 29.9723 160.991 29.9723ZM161.005 33.9947C161.706 33.9947 162.063 33.7137 162.063 33.1518C162.063 32.5899 161.706 32.3089 161.005 32.3089H159.5V33.9947H161.005Z" fill="#FCFCFC"/>
<path d="M17.4291 10.101L25.9456 0H17.6272L13.3689 5.64466L9.01165 0H0.594175L9.20971 10.101L0 21.0932H8.12039L13.2699 14.6563L18.2214 21.0932H26.5398L17.4291 10.101Z" fill="#FCFCFC"/>
<path d="M37.8275 15.0527V5.05078H31.3906V21.0935H39.61L46.245 10.5964V21.0935H52.7809V5.05078H44.3634L37.8275 15.0527Z" fill="#FCFCFC"/>
<path d="M66.3497 10.003C66.9439 9.70594 67.6371 9.50788 68.3303 9.50788C69.3206 9.50788 70.2118 9.70594 70.905 10.2011C71.5982 10.6962 71.9944 11.1914 72.3905 11.9836H78.7283C78.5303 10.4982 78.0351 9.40885 77.1439 8.31953C76.2526 7.23021 74.9652 6.33895 73.4798 5.74478C71.9944 5.1506 70.3109 4.85352 68.4293 4.85352C66.3497 4.85352 64.5672 5.24963 62.9827 5.94284C61.3982 6.63604 60.2099 7.62633 59.3186 8.91371C58.4274 10.2011 58.0312 11.6865 58.0312 13.37C58.0312 15.0535 58.4274 16.539 59.3186 17.8263C60.2099 19.1137 61.3982 20.104 62.9827 20.7972C64.5672 21.4904 66.3497 21.8865 68.4293 21.8865C70.3109 21.8865 71.9944 21.5894 73.4798 20.9953C74.9652 20.4011 76.2526 19.5098 77.1439 18.4205C78.0351 17.3312 78.6293 16.2419 78.7283 14.7564H72.3905C71.8953 15.7467 71.5982 16.0438 70.905 16.539C70.2118 17.0341 69.4196 17.2322 68.3303 17.2322C67.538 17.2322 66.8448 17.1331 66.3497 16.836C65.7555 16.539 65.3594 16.1428 65.0623 15.5487C64.7652 14.9545 64.5672 14.2613 64.5672 13.4691C64.5672 12.6768 64.7652 11.9836 65.0623 11.3894C65.3594 10.6962 65.7555 10.2011 66.3497 10.003Z" fill="#FCFCFC"/>
<path d="M83.2832 5.05078V9.80418H89.423V21.0935H95.9589V9.80418H102V5.05078H83.2832Z" fill="#FCFCFC"/>
<path fill-rule="evenodd" clip-rule="evenodd" d="M164.001 25.8867H0V24.8867H164.001V25.8867Z" fill="#FCFCFC"/>
</svg>
