<svg width="172" height="38" viewBox="0 0 172 38" fill="none" xmlns="http://www.w3.org/2000/svg">
<path d="M4.9375 36.5156L4.4062 35.1406H1.5625L1.0312 36.5156H0L2.3906 30.5781H3.5938L5.9844 36.5156H4.9375ZM1.9062 34.2656H4.0625L2.9844 31.4843L1.9062 34.2656Z" fill="#FCFCFC"/>
<path d="M10.9531 30.5781V31.4843H7.96877V36.5156H6.98438V30.5781H10.9531Z" fill="#FCFCFC"/>
<path d="M14.5 30.5781C15.7969 30.5781 16.6094 31.2812 16.6094 32.4062C16.6094 33.5468 15.7969 34.25 14.5 34.25H13V36.5156H12.0156V30.5781H14.5ZM14.375 33.4062C15.1875 33.4062 15.6094 33.0625 15.6094 32.4218C15.6094 31.7656 15.1875 31.4375 14.375 31.4375H13V33.4062H14.375Z" fill="#FCFCFC"/>
<path d="M18.7812 35.6406H21.9688V36.5156H17.7969V30.5781H21.8906V31.4531H18.7812V33.0468H21.1875V33.8906H18.7812V35.6406Z" fill="#FCFCFC"/>
<path d="M27.1406 30.5781V31.4843H24.1562V36.5156H23.1719V30.5781H27.1406Z" fill="#FCFCFC"/>
<path d="M31.5156 36.5156L30.9844 35.1406H28.1406L27.6094 36.5156H26.5781L28.9688 30.5781H30.1719L32.5625 36.5156H31.5156ZM28.4844 34.2656H30.6406L29.5625 31.4843L28.4844 34.2656Z" fill="#FCFCFC"/>
<path d="M37.4219 30.5781V31.4843H35.3125V36.5156H34.3125V31.4843H32.2031V30.5781H37.4219Z" fill="#FCFCFC"/>
<path d="M40.5625 36.5937C38.8281 36.5937 37.7031 35.3906 37.7031 33.5468C37.7031 31.7343 38.875 30.5 40.5625 30.5C42.2969 30.5 43.4219 31.7031 43.4219 33.5468C43.4219 35.3593 42.25 36.5937 40.5625 36.5937ZM40.5625 35.7343C41.6875 35.7343 42.4062 34.8593 42.4062 33.5468C42.4062 32.2343 41.6875 31.3593 40.5625 31.3593C39.4375 31.3593 38.7188 32.2343 38.7188 33.5468C38.7188 34.8593 39.4375 35.7343 40.5625 35.7343Z" fill="#FCFCFC"/>
<path d="M47.2344 30.5781C48.5312 30.5781 49.3438 31.2812 49.3438 32.4062C49.3438 33.5468 48.5312 34.25 47.2344 34.25H45.7344V36.5156H44.75V30.5781H47.2344ZM47.1094 33.4062C47.9219 33.4062 48.3438 33.0625 48.3438 32.4218C48.3438 31.7656 47.9219 31.4375 47.1094 31.4375H45.7344V33.4062H47.1094Z" fill="#FCFCFC"/>
<path d="M56.797 33.4843C57.3439 33.7343 57.6562 34.2343 57.6562 34.8906C57.6562 35.8906 56.9376 36.5156 55.7501 36.5156H53.0312V30.5781H55.7032C56.8282 30.5781 57.547 31.1875 57.547 32.1562C57.547 32.75 57.2813 33.2187 56.797 33.4843ZM55.547 31.4218H53.9845V33.0625H55.547C56.2345 33.0625 56.5782 32.7968 56.5782 32.2343C56.5782 31.6875 56.2345 31.4218 55.547 31.4218ZM55.5626 35.6718C56.297 35.6718 56.672 35.375 56.672 34.7812C56.672 34.1875 56.297 33.8906 55.5626 33.8906H53.9845V35.6718H55.5626Z" fill="#FCFCFC"/>
<path d="M59.9688 35.6406H63.1562V36.5156H58.9844V30.5781H63.0781V31.4531H59.9688V33.0468H62.375V33.8906H59.9688V35.6406Z" fill="#FCFCFC"/>
<path d="M68.844 30.5781V31.4843H66.7344V36.5156H65.7344V31.4843H63.625V30.5781H68.844Z" fill="#FCFCFC"/>
<path d="M70.8746 35.6406H74.0616V36.5156H69.8906V30.5781H73.9836V31.4531H70.8746V33.0468H73.2806V33.8906H70.8746V35.6406Z" fill="#FCFCFC"/>
<path d="M77.7496 30.5781C79.0466 30.5781 79.8586 31.2812 79.8586 32.4062C79.8586 33.5468 79.0466 34.25 77.7496 34.25H76.2496V36.5156H75.2656V30.5781H77.7496ZM77.6246 33.4062C78.4376 33.4062 78.8586 33.0625 78.8586 32.4218C78.8586 31.7656 78.4376 31.4375 77.6246 31.4375H76.2496V33.4062H77.6246Z" fill="#FCFCFC"/>
<path d="M84.7339 36.5156L84.2029 35.1406H81.3589L80.8279 36.5156H79.7969L82.1879 30.5781H83.3909L85.7809 36.5156H84.7339ZM81.7029 34.2656H83.8589L82.7809 31.4843L81.7029 34.2656Z" fill="#FCFCFC"/>
<path d="M90.7343 30.5781H91.7193V36.5156H90.7343V33.9218H87.7663V36.5156H86.7812V30.5781H87.7663V33.0156H90.7343V30.5781Z" fill="#FCFCFC"/>
<path d="M95.8749 36.5937C94.1559 36.5937 93.0469 35.3906 93.0469 33.5468C93.0469 31.7343 94.2029 30.5 95.8749 30.5C97.0939 30.5 98.0159 31.125 98.3589 32.25L97.4379 32.5781C97.2029 31.7656 96.6559 31.3593 95.8589 31.3593C94.7809 31.3593 94.0619 32.2187 94.0619 33.5468C94.0619 34.9062 94.7499 35.7343 95.8589 35.7343C96.6559 35.7343 97.2029 35.3281 97.4379 34.5156L98.3589 34.8437C98.0159 35.9375 97.0939 36.5937 95.8749 36.5937Z" fill="#FCFCFC"/>
<path d="M102.047 32.8437C103.359 32.8437 104.172 33.5468 104.172 34.6875C104.172 35.8125 103.359 36.5156 102.047 36.5156H99.5469V30.5781H100.531V32.8437H102.047ZM101.953 35.6562C102.766 35.6562 103.172 35.3281 103.172 34.6718C103.172 34.0312 102.766 33.6875 101.953 33.6875H100.531V35.6562H101.953Z" fill="#FCFCFC"/>
<path d="M109.359 36.5156L107.297 33.6718L106.406 34.5468V36.5156H105.422V30.5781H106.406V33.4062L109.188 30.5781H110.422L107.984 32.9843L110.562 36.5156H109.359Z" fill="#FCFCFC"/>
<path d="M115.594 30.5781H116.562V36.5156H115.578V32.0937L112.547 36.5156H111.594V30.5781H112.578V34.9843L115.594 30.5781Z" fill="#FCFCFC"/>
<path d="M123.219 36.5156H122.078L120.391 34.1718L118.734 36.5156H117.594L119.828 33.4843L117.734 30.5781H118.891L120.422 32.75L121.969 30.5781H123.078L121 33.4531L123.219 36.5156Z" fill="#FCFCFC"/>
<path d="M126.75 36.5156V30.5781H127.734V36.5156H126.75Z" fill="#FCFCFC"/>
<path d="M133.469 30.5781H134.453V36.5156H133.469V33.9218H130.5V36.5156H129.516V30.5781H130.5V33.0156H133.469V30.5781Z" fill="#FCFCFC"/>
<path d="M136.234 36.5156V30.5781H137.219V36.5156H136.234Z" fill="#FCFCFC"/>
<path d="M144.516 35.6093V37.7656H143.547V36.5156H139V30.5781H139.984V35.6093H142.828V30.5781H143.812V35.6093H144.516Z" fill="#FCFCFC"/>
<path d="M145.703 36.5156V30.5781H146.688V36.5156H145.703Z" fill="#FCFCFC"/>
<path d="M152.624 36.5156L152.093 35.1406H149.249L148.718 36.5156H147.688L150.077 30.5781H151.281L153.671 36.5156H152.624ZM149.593 34.2656H151.749L150.671 31.4843L149.593 34.2656Z" fill="#FCFCFC"/>
<path d="M158.532 30.5781V31.4843H156.423V36.5156H155.423V31.4843H153.312V30.5781H158.532Z" fill="#FCFCFC"/>
<path d="M163.578 30.5781H164.547V36.5156H163.562V32.0937L160.531 36.5156H159.578V30.5781H160.562V34.9843L163.578 30.5781Z" fill="#FCFCFC"/>
<path d="M170.094 33.4843C170.641 33.7343 170.953 34.2343 170.953 34.8906C170.953 35.8906 170.234 36.5156 169.047 36.5156H166.328V30.5781H169C170.125 30.5781 170.844 31.1875 170.844 32.1562C170.844 32.75 170.578 33.2187 170.094 33.4843ZM168.844 31.4218H167.281V33.0625H168.844C169.531 33.0625 169.875 32.7968 169.875 32.2343C169.875 31.6875 169.531 31.4218 168.844 31.4218ZM168.859 35.6718C169.594 35.6718 169.969 35.375 169.969 34.7812C169.969 34.1875 169.594 33.8906 168.859 33.8906H167.281V35.6718H168.859Z" fill="#FCFCFC"/>
<path d="M18.3964 10.6615L27.3855 0H18.6054L14.1109 5.95792L9.51177 0H0.627149L9.72081 10.6615L0 22.2638H8.57104L14.0063 15.4697L19.2326 22.2638H28.0127L18.3964 10.6615Z" fill="#FCFCFC"/>
<path d="M39.9277 15.8873V5.33032H33.1335V22.2634H41.8091L48.8123 11.1837V22.2634H55.7109V5.33032H46.8263L39.9277 15.8873Z" fill="#FCFCFC"/>
<path d="M70.0313 10.5574C70.6585 10.2438 71.3901 10.0347 72.1218 10.0347C73.1671 10.0347 74.1078 10.2438 74.8395 10.7664C75.5711 11.289 75.9892 11.8117 76.4073 12.6479H83.0969C82.8879 11.08 82.3653 9.93021 81.4245 8.78044C80.4838 7.63067 79.125 6.68994 77.5571 6.06279C75.9892 5.43565 74.2123 5.12207 72.2263 5.12207C70.0313 5.12207 68.1499 5.54017 66.4775 6.27184C64.8051 7.00352 63.5508 8.04877 62.61 9.40759C61.6693 10.7664 61.2512 12.3343 61.2512 14.1112C61.2512 15.8881 61.6693 17.456 62.61 18.8148C63.5508 20.1737 64.8051 21.2189 66.4775 21.9506C68.1499 22.6823 70.0313 23.1004 72.2263 23.1004C74.2123 23.1004 75.9892 22.7868 77.5571 22.1596C79.125 21.5325 80.4838 20.5918 81.4245 19.442C82.3653 18.2922 82.9924 17.1424 83.0969 15.5746H76.4073C75.8847 16.6198 75.5711 16.9334 74.8395 17.456C74.1078 17.9786 73.2716 18.1877 72.1218 18.1877C71.2856 18.1877 70.5539 18.0832 70.0313 17.7696C69.4042 17.456 68.9861 17.0379 68.6725 16.4108C68.3589 15.7836 68.1499 15.0519 68.1499 14.2157C68.1499 13.3795 68.3589 12.6479 68.6725 12.0207C68.9861 11.289 69.4042 10.7664 70.0313 10.5574Z" fill="#FCFCFC"/>
<path d="M87.905 5.33032V10.3475H94.3856V22.2634H101.284V10.3475H107.66V5.33032H87.905Z" fill="#FCFCFC"/>
<path fill-rule="evenodd" clip-rule="evenodd" d="M172.001 27.0996H0V26.0996H172.001V27.0996Z" fill="#FCFCFC"/>
</svg>
