<svg width="135" height="30" viewBox="0 0 135 30" fill="none" xmlns="http://www.w3.org/2000/svg">
<path fill-rule="evenodd" clip-rule="evenodd" d="M135.001 21.3906H0V20.3906H135.001V21.3906Z" fill="#FCFCFC"/>
<path d="M3.87536 28.7589L3.45835 27.6786H1.22638L0.809372 28.7589H0L1.87634 24.0938H2.82071L4.69706 28.7589H3.87536ZM1.49615 26.9911H3.18859L2.34241 24.8058L1.49615 26.9911Z" fill="#FCFCFC"/>
<path d="M8.59543 24.0938V24.8058H6.25311V28.7589H5.48047V24.0938H8.59543Z" fill="#FCFCFC"/>
<path d="M11.3816 24.0938C12.3995 24.0938 13.0372 24.6462 13.0372 25.5301C13.0372 26.4263 12.3995 26.9788 11.3816 26.9788H10.2043V28.7589H9.43164V24.0938H11.3816ZM11.2835 26.3158C11.9212 26.3158 12.2524 26.0458 12.2524 25.5424C12.2524 25.0268 11.9212 24.769 11.2835 24.769H10.2043V26.3158H11.2835Z" fill="#FCFCFC"/>
<path d="M14.7413 28.0714H17.2432V28.7589H13.9688V24.0938H17.1818V24.7812H14.7413V26.0334H16.63V26.6964H14.7413V28.0714Z" fill="#FCFCFC"/>
<path d="M21.3025 24.0938V24.8058H18.9601V28.7589H18.1875V24.0938H21.3025Z" fill="#FCFCFC"/>
<path d="M24.7347 28.7589L24.3178 27.6786H22.0858L21.6688 28.7589H20.8594L22.7358 24.0938H23.6801L25.5564 28.7589H24.7347ZM22.3556 26.9911H24.048L23.2018 24.8058L22.3556 26.9911Z" fill="#FCFCFC"/>
<path d="M29.3715 24.0938V24.8058H27.7159V28.7589H26.931V24.8058H25.2754V24.0938H29.3715Z" fill="#FCFCFC"/>
<path d="M31.838 28.8211C30.4767 28.8211 29.5938 27.8758 29.5938 26.4271C29.5938 25.003 30.5136 24.0332 31.838 24.0332C33.1993 24.0332 34.0823 24.9785 34.0823 26.4271C34.0823 27.8512 33.1625 28.8211 31.838 28.8211ZM31.838 28.1459C32.721 28.1459 33.2851 27.4584 33.2851 26.4271C33.2851 25.3959 32.721 24.7084 31.838 24.7084C30.9551 24.7084 30.391 25.3959 30.391 26.4271C30.391 27.4584 30.9551 28.1459 31.838 28.1459Z" fill="#FCFCFC"/>
<path d="M37.075 24.0938C38.0928 24.0938 38.7306 24.6462 38.7306 25.5301C38.7306 26.4263 38.0928 26.9788 37.075 26.9788H35.8976V28.7589H35.125V24.0938H37.075ZM36.9769 26.3158C37.6146 26.3158 37.9457 26.0458 37.9457 25.5424C37.9457 25.0268 37.6146 24.769 36.9769 24.769H35.8976V26.3158H36.9769Z" fill="#FCFCFC"/>
<path d="M44.5787 26.3772C45.0079 26.5736 45.2531 26.9665 45.2531 27.4821C45.2531 28.2679 44.689 28.7589 43.757 28.7589H41.623V24.0938H43.7202C44.6032 24.0938 45.1673 24.5726 45.1673 25.3337C45.1673 25.8002 44.9588 26.1685 44.5787 26.3772ZM43.5976 24.7567H42.3712V26.0458H43.5976C44.1372 26.0458 44.407 25.837 44.407 25.3951C44.407 24.9654 44.1372 24.7567 43.5976 24.7567ZM43.6098 28.0959C44.1862 28.0959 44.4806 27.8627 44.4806 27.3962C44.4806 26.9297 44.1862 26.6964 43.6098 26.6964H42.3712V28.0959H43.6098Z" fill="#FCFCFC"/>
<path d="M47.0695 28.0714H49.5713V28.7589H46.2969V24.0938H49.51V24.7812H47.0695V26.0334H48.9581V26.6964H47.0695V28.0714Z" fill="#FCFCFC"/>
<path d="M54.0338 24.0938V24.8058H52.378V28.7589H51.5931V24.8058H49.9375V24.0938H54.0338Z" fill="#FCFCFC"/>
<path d="M55.6278 28.0714H58.1292V28.7589H54.8555V24.0938H58.068V24.7812H55.6278V26.0334H57.5162V26.6964H55.6278V28.0714Z" fill="#FCFCFC"/>
<path d="M61.0239 24.0938C62.0419 24.0938 62.6792 24.6462 62.6792 25.5301C62.6792 26.4263 62.0419 26.9788 61.0239 26.9788H59.8465V28.7589H59.0742V24.0938H61.0239ZM60.9258 26.3158C61.5639 26.3158 61.8943 26.0458 61.8943 25.5424C61.8943 25.0268 61.5639 24.769 60.9258 24.769H59.8465V26.3158H60.9258Z" fill="#FCFCFC"/>
<path d="M66.5078 28.7589L66.091 27.6786H63.8588L63.442 28.7589H62.6328L64.5095 24.0938H65.4537L67.3296 28.7589H66.5078ZM64.1288 26.9911H65.821L64.9749 24.8058L64.1288 26.9911Z" fill="#FCFCFC"/>
<path d="M71.2159 24.0938H71.989V28.7589H71.2159V26.7209H68.8864V28.7589H68.1133V24.0938H68.8864V26.0089H71.2159V24.0938Z" fill="#FCFCFC"/>
<path d="M75.2509 28.8211C73.9017 28.8211 73.0312 27.8758 73.0312 26.4271C73.0312 25.003 73.9386 24.0332 75.2509 24.0332C76.2077 24.0332 76.9313 24.5243 77.2005 25.4082L76.4777 25.666C76.2932 25.0276 75.8639 24.7084 75.2383 24.7084C74.3922 24.7084 73.8279 25.3836 73.8279 26.4271C73.8279 27.4952 74.3679 28.1459 75.2383 28.1459C75.8639 28.1459 76.2932 27.8267 76.4777 27.1883L77.2005 27.4461C76.9313 28.3055 76.2077 28.8211 75.2509 28.8211Z" fill="#FCFCFC"/>
<path d="M80.095 25.8739C81.1248 25.8739 81.7629 26.4263 81.7629 27.3226C81.7629 28.2065 81.1248 28.7589 80.095 28.7589H78.1328V24.0938H78.9051V25.8739H80.095ZM80.0212 28.0837C80.6594 28.0837 80.978 27.8259 80.978 27.3102C80.978 26.8069 80.6594 26.5368 80.0212 26.5368H78.9051V28.0837H80.0212Z" fill="#FCFCFC"/>
<path d="M85.8342 28.7589L84.2158 26.5245L83.5165 27.212V28.7589H82.7441V24.0938H83.5165V26.3158L85.7 24.0938H86.6686L84.755 25.9843L86.7784 28.7589H85.8342Z" fill="#FCFCFC"/>
<path d="M90.7274 24.0938H91.4872V28.7589H90.7149V25.2846L88.3359 28.7589H87.5879V24.0938H88.3602V27.5558L90.7274 24.0938Z" fill="#FCFCFC"/>
<path d="M96.7118 28.7589H95.8163L94.4922 26.9174L93.1916 28.7589H92.2969L94.0503 26.3772L92.4068 24.0938H93.3149L94.5165 25.8002L95.7307 24.0938H96.6012L94.9702 26.3527L96.7118 28.7589Z" fill="#FCFCFC"/>
<path d="M99.4844 28.7589V24.0938H100.257V28.7589H99.4844Z" fill="#FCFCFC"/>
<path d="M104.759 24.0938H105.531V28.7589H104.759V26.7209H102.429V28.7589H101.656V24.0938H102.429V26.0089H104.759V24.0938Z" fill="#FCFCFC"/>
<path d="M106.928 28.7589V24.0938H107.701V28.7589H106.928Z" fill="#FCFCFC"/>
<path d="M113.427 28.0468V29.7411H112.667V28.7589H109.098V24.0938H109.87V28.0468H112.102V24.0938H112.875V28.0468H113.427Z" fill="#FCFCFC"/>
<path d="M114.359 28.7589V24.0938H115.132V28.7589H114.359Z" fill="#FCFCFC"/>
<path d="M119.793 28.7589L119.376 27.6786H117.144L116.727 28.7589H115.918L117.794 24.0938H118.738L120.615 28.7589H119.793ZM117.414 26.9911H119.106L118.26 24.8058L117.414 26.9911Z" fill="#FCFCFC"/>
<path d="M124.428 24.0938V24.8058H122.773V28.7589H121.988V24.8058H120.332V24.0938H124.428Z" fill="#FCFCFC"/>
<path d="M128.39 24.0938H129.15V28.7589H128.377V25.2846L125.998 28.7589H125.25V24.0938H126.022V27.5558L128.39 24.0938Z" fill="#FCFCFC"/>
<path d="M133.503 26.3772C133.932 26.5736 134.177 26.9665 134.177 27.4821C134.177 28.2679 133.613 28.7589 132.681 28.7589H130.547V24.0938H132.644C133.527 24.0938 134.091 24.5726 134.091 25.3337C134.091 25.8002 133.883 26.1685 133.503 26.3772ZM132.522 24.7567H131.295V26.0458H132.522C133.061 26.0458 133.331 25.837 133.331 25.3951C133.331 24.9654 133.061 24.7567 132.522 24.7567ZM132.533 28.0959C133.11 28.0959 133.405 27.8627 133.405 27.3962C133.405 26.9297 133.11 26.6964 132.533 26.6964H131.295V28.0959H132.533Z" fill="#FCFCFC"/>
<path d="M14.3534 8.31845L21.367 0H14.5165L11.0097 4.64854L7.42136 0H0.48932L7.58447 8.31845L0 17.3709H6.68738L10.9282 12.0699L15.0058 17.3709H21.8563L14.3534 8.31845Z" fill="#FCFCFC"/>
<path d="M31.1525 12.3951V4.1582H25.8516V17.3699H32.6205L38.0846 8.72519V17.3699H43.4671V4.1582H36.5351L31.1525 12.3951Z" fill="#FCFCFC"/>
<path d="M54.6395 8.23687C55.1289 7.99221 55.6997 7.8291 56.2706 7.8291C57.0862 7.8291 57.8201 7.99221 58.391 8.39998C58.9619 8.80774 59.2881 9.21551 59.6143 9.86794H64.8337C64.6706 8.64464 64.2628 7.74755 63.5289 6.85046C62.7949 5.95337 61.7347 5.21939 60.5114 4.73007C59.2881 4.24075 57.9017 3.99609 56.3522 3.99609C54.6395 3.99609 53.1716 4.32231 51.8667 4.89318C50.5619 5.46405 49.5832 6.27959 48.8493 7.33978C48.1153 8.39998 47.7891 9.62328 47.7891 11.0097C47.7891 12.3961 48.1153 13.6194 48.8493 14.6796C49.5832 15.7398 50.5619 16.5553 51.8667 17.1262C53.1716 17.6971 54.6395 18.0233 56.3522 18.0233C57.9017 18.0233 59.2881 17.7786 60.5114 17.2893C61.7347 16.8 62.7949 16.066 63.5289 15.1689C64.2628 14.2718 64.7522 13.3747 64.8337 12.1514H59.6143C59.2065 12.967 58.9619 13.2116 58.391 13.6194C57.8201 14.0272 57.1677 14.1903 56.2706 14.1903C55.6182 14.1903 55.0473 14.1087 54.6395 13.8641C54.1502 13.6194 53.824 13.2932 53.5794 12.8039C53.3347 12.3145 53.1716 11.7437 53.1716 11.0912C53.1716 10.4388 53.3347 9.86794 53.5794 9.37862C53.824 8.80774 54.1502 8.39998 54.6395 8.23687Z" fill="#FCFCFC"/>
<path d="M68.5859 4.1582V8.07277H73.6423V17.3699H79.0248V8.07277H83.9995V4.1582H68.5859Z" fill="#FCFCFC"/>
</svg>
