<svg width="173" height="38" viewBox="0 0 173 38" fill="none" xmlns="http://www.w3.org/2000/svg">
<path d="M4.9375 36.6328L4.4062 35.2578H1.5625L1.0312 36.6328H0L2.3906 30.6953H3.5938L5.9844 36.6328H4.9375ZM1.9062 34.3828H4.0625L2.9844 31.6015L1.9062 34.3828Z" fill="#151515"/>
<path d="M10.9531 30.6953V31.6015H7.96877V36.6328H6.98438V30.6953H10.9531Z" fill="#151515"/>
<path d="M14.5 30.6953C15.7969 30.6953 16.6094 31.3984 16.6094 32.5234C16.6094 33.664 15.7969 34.3672 14.5 34.3672H13V36.6328H12.0156V30.6953H14.5ZM14.375 33.5234C15.1875 33.5234 15.6094 33.1797 15.6094 32.539C15.6094 31.8828 15.1875 31.5547 14.375 31.5547H13V33.5234H14.375Z" fill="#151515"/>
<path d="M18.7812 35.7578H21.9688V36.6328H17.7969V30.6953H21.8906V31.5703H18.7812V33.164H21.1875V34.0078H18.7812V35.7578Z" fill="#151515"/>
<path d="M27.1406 30.6953V31.6015H24.1562V36.6328H23.1719V30.6953H27.1406Z" fill="#151515"/>
<path d="M31.5156 36.6328L30.9844 35.2578H28.1406L27.6094 36.6328H26.5781L28.9688 30.6953H30.1719L32.5625 36.6328H31.5156ZM28.4844 34.3828H30.6406L29.5625 31.6015L28.4844 34.3828Z" fill="#151515"/>
<path d="M37.4219 30.6953V31.6015H35.3125V36.6328H34.3125V31.6015H32.2031V30.6953H37.4219Z" fill="#151515"/>
<path d="M40.5625 36.7109C38.8281 36.7109 37.7031 35.5078 37.7031 33.664C37.7031 31.8515 38.875 30.6172 40.5625 30.6172C42.2969 30.6172 43.4219 31.8203 43.4219 33.664C43.4219 35.4765 42.25 36.7109 40.5625 36.7109ZM40.5625 35.8515C41.6875 35.8515 42.4062 34.9765 42.4062 33.664C42.4062 32.3515 41.6875 31.4765 40.5625 31.4765C39.4375 31.4765 38.7188 32.3515 38.7188 33.664C38.7188 34.9765 39.4375 35.8515 40.5625 35.8515Z" fill="#151515"/>
<path d="M47.2344 30.6953C48.5312 30.6953 49.3438 31.3984 49.3438 32.5234C49.3438 33.664 48.5312 34.3672 47.2344 34.3672H45.7344V36.6328H44.75V30.6953H47.2344ZM47.1094 33.5234C47.9219 33.5234 48.3438 33.1797 48.3438 32.539C48.3438 31.8828 47.9219 31.5547 47.1094 31.5547H45.7344V33.5234H47.1094Z" fill="#151515"/>
<path d="M56.797 33.6015C57.3439 33.8515 57.6562 34.3515 57.6562 35.0078C57.6562 36.0078 56.9376 36.6328 55.7501 36.6328H53.0312V30.6953H55.7032C56.8282 30.6953 57.547 31.3047 57.547 32.2734C57.547 32.8672 57.2813 33.3359 56.797 33.6015ZM55.547 31.539H53.9845V33.1797H55.547C56.2345 33.1797 56.5782 32.914 56.5782 32.3515C56.5782 31.8047 56.2345 31.539 55.547 31.539ZM55.5626 35.789C56.297 35.789 56.672 35.4922 56.672 34.8984C56.672 34.3047 56.297 34.0078 55.5626 34.0078H53.9845V35.789H55.5626Z" fill="#151515"/>
<path d="M59.9688 35.7578H63.1562V36.6328H58.9844V30.6953H63.0781V31.5703H59.9688V33.164H62.375V34.0078H59.9688V35.7578Z" fill="#151515"/>
<path d="M68.844 30.6953V31.6015H66.7344V36.6328H65.7344V31.6015H63.625V30.6953H68.844Z" fill="#151515"/>
<path d="M70.8746 35.7578H74.0616V36.6328H69.8906V30.6953H73.9836V31.5703H70.8746V33.164H73.2806V34.0078H70.8746V35.7578Z" fill="#151515"/>
<path d="M77.7496 30.6953C79.0466 30.6953 79.8586 31.3984 79.8586 32.5234C79.8586 33.664 79.0466 34.3672 77.7496 34.3672H76.2496V36.6328H75.2656V30.6953H77.7496ZM77.6246 33.5234C78.4376 33.5234 78.8586 33.1797 78.8586 32.539C78.8586 31.8828 78.4376 31.5547 77.6246 31.5547H76.2496V33.5234H77.6246Z" fill="#151515"/>
<path d="M84.7339 36.6328L84.2029 35.2578H81.3589L80.8279 36.6328H79.7969L82.1879 30.6953H83.3909L85.7809 36.6328H84.7339ZM81.7029 34.3828H83.8589L82.7809 31.6015L81.7029 34.3828Z" fill="#151515"/>
<path d="M90.7343 30.6953H91.7193V36.6328H90.7343V34.039H87.7663V36.6328H86.7812V30.6953H87.7663V33.1328H90.7343V30.6953Z" fill="#151515"/>
<path d="M95.8749 36.7109C94.1559 36.7109 93.0469 35.5078 93.0469 33.664C93.0469 31.8515 94.2029 30.6172 95.8749 30.6172C97.0939 30.6172 98.0159 31.2422 98.3589 32.3672L97.4379 32.6953C97.2029 31.8828 96.6559 31.4765 95.8589 31.4765C94.7809 31.4765 94.0619 32.3359 94.0619 33.664C94.0619 35.0234 94.7499 35.8515 95.8589 35.8515C96.6559 35.8515 97.2029 35.4453 97.4379 34.6328L98.3589 34.9609C98.0159 36.0547 97.0939 36.7109 95.8749 36.7109Z" fill="#151515"/>
<path d="M102.047 32.9609C103.359 32.9609 104.172 33.664 104.172 34.8047C104.172 35.9297 103.359 36.6328 102.047 36.6328H99.5469V30.6953H100.531V32.9609H102.047ZM101.953 35.7734C102.766 35.7734 103.172 35.4453 103.172 34.789C103.172 34.1484 102.766 33.8047 101.953 33.8047H100.531V35.7734H101.953Z" fill="#151515"/>
<path d="M109.359 36.6328L107.297 33.789L106.406 34.664V36.6328H105.422V30.6953H106.406V33.5234L109.188 30.6953H110.422L107.984 33.1015L110.562 36.6328H109.359Z" fill="#151515"/>
<path d="M115.594 30.6953H116.562V36.6328H115.578V32.2109L112.547 36.6328H111.594V30.6953H112.578V35.1015L115.594 30.6953Z" fill="#151515"/>
<path d="M123.219 36.6328H122.078L120.391 34.289L118.734 36.6328H117.594L119.828 33.6015L117.734 30.6953H118.891L120.422 32.8672L121.969 30.6953H123.078L121 33.5703L123.219 36.6328Z" fill="#151515"/>
<path d="M126.75 36.6328V30.6953H127.734V36.6328H126.75Z" fill="#151515"/>
<path d="M133.469 30.6953H134.453V36.6328H133.469V34.039H130.5V36.6328H129.516V30.6953H130.5V33.1328H133.469V30.6953Z" fill="#151515"/>
<path d="M136.234 36.6328V30.6953H137.219V36.6328H136.234Z" fill="#151515"/>
<path d="M144.516 35.7265V37.8828H143.547V36.6328H139V30.6953H139.984V35.7265H142.828V30.6953H143.812V35.7265H144.516Z" fill="#151515"/>
<path d="M145.703 36.6328V30.6953H146.688V36.6328H145.703Z" fill="#151515"/>
<path d="M152.624 36.6328L152.093 35.2578H149.249L148.718 36.6328H147.688L150.077 30.6953H151.281L153.671 36.6328H152.624ZM149.593 34.3828H151.749L150.671 31.6015L149.593 34.3828Z" fill="#151515"/>
<path d="M158.532 30.6953V31.6015H156.423V36.6328H155.423V31.6015H153.312V30.6953H158.532Z" fill="#151515"/>
<path d="M163.578 30.6953H164.547V36.6328H163.562V32.2109L160.531 36.6328H159.578V30.6953H160.562V35.1015L163.578 30.6953Z" fill="#151515"/>
<path d="M170.094 33.6015C170.641 33.8515 170.953 34.3515 170.953 35.0078C170.953 36.0078 170.234 36.6328 169.047 36.6328H166.328V30.6953H169C170.125 30.6953 170.844 31.3047 170.844 32.2734C170.844 32.8672 170.578 33.3359 170.094 33.6015ZM168.844 31.539H167.281V33.1797H168.844C169.531 33.1797 169.875 32.914 169.875 32.3515C169.875 31.8047 169.531 31.539 168.844 31.539ZM168.859 35.789C169.594 35.789 169.969 35.4922 169.969 34.8984C169.969 34.3047 169.594 34.0078 168.859 34.0078H167.281V35.789H168.859Z" fill="#151515"/>
<path d="M18.3964 10.7787L27.3855 0.117188H18.6054L14.1109 6.07511L9.51177 0.117188H0.627149L9.72081 10.7787L0 22.381H8.57104L14.0063 15.5869L19.2326 22.381H28.0127L18.3964 10.7787Z" fill="#151515"/>
<path d="M39.9269 16.0043V5.44727H33.1328V22.3803H41.8084L48.8115 11.3007V22.3803H55.7102V5.44727H46.8256L39.9269 16.0043Z" fill="#151515"/>
<path d="M70.032 10.6755C70.6592 10.362 71.3909 10.1529 72.1225 10.1529C73.1678 10.1529 74.1085 10.362 74.8402 10.8846C75.5719 11.4072 75.99 11.9298 76.4081 12.766H83.0977C82.8886 11.1982 82.366 10.0484 81.4253 8.8986C80.4845 7.74883 79.1257 6.80811 77.5578 6.18096C75.99 5.55381 74.213 5.24023 72.2271 5.24023C70.032 5.24023 68.1506 5.65833 66.4782 6.39001C64.8058 7.12168 63.5515 8.16693 62.6108 9.52575C61.6701 10.8846 61.252 12.4525 61.252 14.2294C61.252 16.0063 61.6701 17.5742 62.6108 18.933C63.5515 20.2918 64.8058 21.3371 66.4782 22.0687C68.1506 22.8004 70.032 23.2185 72.2271 23.2185C74.213 23.2185 75.99 22.9049 77.5578 22.2778C79.1257 21.6506 80.4845 20.7099 81.4253 19.5601C82.366 18.4104 82.9931 17.2606 83.0977 15.6927H76.4081C75.8854 16.738 75.5719 17.0515 74.8402 17.5742C74.1085 18.0968 73.2723 18.3058 72.1225 18.3058C71.2863 18.3058 70.5547 18.2013 70.032 17.8877C69.4049 17.5742 68.9868 17.1561 68.6732 16.5289C68.3596 15.9018 68.1506 15.1701 68.1506 14.3339C68.1506 13.4977 68.3596 12.766 68.6732 12.1389C68.9868 11.4072 69.4049 10.8846 70.032 10.6755Z" fill="#151515"/>
<path d="M87.9043 5.44727V10.4645H94.3848V22.3803H101.283V10.4645H107.66V5.44727H87.9043Z" fill="#151515"/>
<path fill-rule="evenodd" clip-rule="evenodd" d="M172.001 27.2168H0V26.2168H172.001V27.2168Z" fill="#151515"/>
</svg>
