<svg width="135" height="30" viewBox="0 0 135 30" fill="none" xmlns="http://www.w3.org/2000/svg">
<path fill-rule="evenodd" clip-rule="evenodd" d="M135.001 21.52H0V20.52H135.001V21.52Z" fill="#151515"/>
<path d="M3.87536 28.8883L3.45835 27.808H1.22638L0.809372 28.8883H0L1.87634 24.2231H2.82071L4.69706 28.8883H3.87536ZM1.49615 27.1205H3.18859L2.34241 24.9352L1.49615 27.1205Z" fill="#151515"/>
<path d="M8.59543 24.2231V24.9352H6.25311V28.8883H5.48047V24.2231H8.59543Z" fill="#151515"/>
<path d="M11.3816 24.2231C12.3995 24.2231 13.0372 24.7756 13.0372 25.6595C13.0372 26.5557 12.3995 27.1082 11.3816 27.1082H10.2043V28.8883H9.43164V24.2231H11.3816ZM11.2835 26.4452C11.9212 26.4452 12.2524 26.1752 12.2524 25.6718C12.2524 25.1562 11.9212 24.8984 11.2835 24.8984H10.2043V26.4452H11.2835Z" fill="#151515"/>
<path d="M14.7413 28.2008H17.2432V28.8883H13.9688V24.2231H17.1818V24.9106H14.7413V26.1628H16.63V26.8258H14.7413V28.2008Z" fill="#151515"/>
<path d="M21.3025 24.2231V24.9352H18.9601V28.8883H18.1875V24.2231H21.3025Z" fill="#151515"/>
<path d="M24.7347 28.8883L24.3178 27.808H22.0858L21.6688 28.8883H20.8594L22.7358 24.2231H23.6801L25.5564 28.8883H24.7347ZM22.3556 27.1205H24.048L23.2018 24.9352L22.3556 27.1205Z" fill="#151515"/>
<path d="M29.3715 24.2231V24.9352H27.7159V28.8883H26.931V24.9352H25.2754V24.2231H29.3715Z" fill="#151515"/>
<path d="M31.838 28.9505C30.4767 28.9505 29.5938 28.0052 29.5938 26.5565C29.5938 25.1324 30.5136 24.1626 31.838 24.1626C33.1993 24.1626 34.0823 25.1079 34.0823 26.5565C34.0823 27.9806 33.1625 28.9505 31.838 28.9505ZM31.838 28.2753C32.721 28.2753 33.2851 27.5878 33.2851 26.5565C33.2851 25.5253 32.721 24.8378 31.838 24.8378C30.9551 24.8378 30.391 25.5253 30.391 26.5565C30.391 27.5878 30.9551 28.2753 31.838 28.2753Z" fill="#151515"/>
<path d="M37.075 24.2231C38.0928 24.2231 38.7306 24.7756 38.7306 25.6595C38.7306 26.5557 38.0928 27.1082 37.075 27.1082H35.8976V28.8883H35.125V24.2231H37.075ZM36.9769 26.4452C37.6146 26.4452 37.9457 26.1752 37.9457 25.6718C37.9457 25.1562 37.6146 24.8984 36.9769 24.8984H35.8976V26.4452H36.9769Z" fill="#151515"/>
<path d="M44.5787 26.5066C45.0079 26.703 45.2531 27.0959 45.2531 27.6115C45.2531 28.3973 44.689 28.8883 43.757 28.8883H41.623V24.2231H43.7202C44.6032 24.2231 45.1673 24.702 45.1673 25.4631C45.1673 25.9296 44.9588 26.2979 44.5787 26.5066ZM43.5976 24.8861H42.3712V26.1752H43.5976C44.1372 26.1752 44.407 25.9664 44.407 25.5244C44.407 25.0948 44.1372 24.8861 43.5976 24.8861ZM43.6098 28.2253C44.1862 28.2253 44.4806 27.9921 44.4806 27.5256C44.4806 27.0591 44.1862 26.8258 43.6098 26.8258H42.3712V28.2253H43.6098Z" fill="#151515"/>
<path d="M47.0695 28.2008H49.5713V28.8883H46.2969V24.2231H49.51V24.9106H47.0695V26.1628H48.9581V26.8258H47.0695V28.2008Z" fill="#151515"/>
<path d="M54.0338 24.2231V24.9352H52.378V28.8883H51.5931V24.9352H49.9375V24.2231H54.0338Z" fill="#151515"/>
<path d="M55.6278 28.2008H58.1292V28.8883H54.8555V24.2231H58.068V24.9106H55.6278V26.1628H57.5162V26.8258H55.6278V28.2008Z" fill="#151515"/>
<path d="M61.0239 24.2231C62.0419 24.2231 62.6792 24.7756 62.6792 25.6595C62.6792 26.5557 62.0419 27.1082 61.0239 27.1082H59.8465V28.8883H59.0742V24.2231H61.0239ZM60.9258 26.4452C61.5639 26.4452 61.8943 26.1752 61.8943 25.6718C61.8943 25.1562 61.5639 24.8984 60.9258 24.8984H59.8465V26.4452H60.9258Z" fill="#151515"/>
<path d="M66.5078 28.8883L66.091 27.808H63.8588L63.442 28.8883H62.6328L64.5095 24.2231H65.4537L67.3296 28.8883H66.5078ZM64.1288 27.1205H65.821L64.9749 24.9352L64.1288 27.1205Z" fill="#151515"/>
<path d="M71.2159 24.2231H71.989V28.8883H71.2159V26.8503H68.8864V28.8883H68.1133V24.2231H68.8864V26.1383H71.2159V24.2231Z" fill="#151515"/>
<path d="M75.2509 28.9505C73.9017 28.9505 73.0312 28.0052 73.0312 26.5565C73.0312 25.1324 73.9386 24.1626 75.2509 24.1626C76.2077 24.1626 76.9313 24.6537 77.2005 25.5376L76.4777 25.7954C76.2932 25.157 75.8639 24.8378 75.2383 24.8378C74.3922 24.8378 73.8279 25.513 73.8279 26.5565C73.8279 27.6246 74.3679 28.2753 75.2383 28.2753C75.8639 28.2753 76.2932 27.9561 76.4777 27.3177L77.2005 27.5755C76.9313 28.4349 76.2077 28.9505 75.2509 28.9505Z" fill="#151515"/>
<path d="M80.095 26.0033C81.1248 26.0033 81.7629 26.5557 81.7629 27.452C81.7629 28.3359 81.1248 28.8883 80.095 28.8883H78.1328V24.2231H78.9051V26.0033H80.095ZM80.0212 28.2131C80.6594 28.2131 80.978 27.9553 80.978 27.4396C80.978 26.9363 80.6594 26.6662 80.0212 26.6662H78.9051V28.2131H80.0212Z" fill="#151515"/>
<path d="M85.8342 28.8883L84.2158 26.6539L83.5165 27.3414V28.8883H82.7441V24.2231H83.5165V26.4452L85.7 24.2231H86.6686L84.755 26.1137L86.7784 28.8883H85.8342Z" fill="#151515"/>
<path d="M90.7274 24.2231H91.4872V28.8883H90.7149V25.414L88.3359 28.8883H87.5879V24.2231H88.3602V27.6852L90.7274 24.2231Z" fill="#151515"/>
<path d="M96.7118 28.8883H95.8163L94.4922 27.0468L93.1916 28.8883H92.2969L94.0503 26.5066L92.4068 24.2231H93.3149L94.5165 25.9296L95.7307 24.2231H96.6012L94.9702 26.4821L96.7118 28.8883Z" fill="#151515"/>
<path d="M99.4844 28.8883V24.2231H100.257V28.8883H99.4844Z" fill="#151515"/>
<path d="M104.759 24.2231H105.531V28.8883H104.759V26.8503H102.429V28.8883H101.656V24.2231H102.429V26.1383H104.759V24.2231Z" fill="#151515"/>
<path d="M106.928 28.8883V24.2231H107.701V28.8883H106.928Z" fill="#151515"/>
<path d="M113.427 28.1762V29.8705H112.667V28.8883H109.098V24.2231H109.87V28.1762H112.102V24.2231H112.875V28.1762H113.427Z" fill="#151515"/>
<path d="M114.359 28.8883V24.2231H115.132V28.8883H114.359Z" fill="#151515"/>
<path d="M119.793 28.8883L119.376 27.808H117.144L116.727 28.8883H115.918L117.794 24.2231H118.738L120.615 28.8883H119.793ZM117.414 27.1205H119.106L118.26 24.9352L117.414 27.1205Z" fill="#151515"/>
<path d="M124.428 24.2231V24.9352H122.773V28.8883H121.988V24.9352H120.332V24.2231H124.428Z" fill="#151515"/>
<path d="M128.39 24.2231H129.15V28.8883H128.377V25.414L125.998 28.8883H125.25V24.2231H126.022V27.6852L128.39 24.2231Z" fill="#151515"/>
<path d="M133.503 26.5066C133.932 26.703 134.177 27.0959 134.177 27.6115C134.177 28.3973 133.613 28.8883 132.681 28.8883H130.547V24.2231H132.644C133.527 24.2231 134.091 24.702 134.091 25.4631C134.091 25.9296 133.883 26.2979 133.503 26.5066ZM132.522 24.8861H131.295V26.1752H132.522C133.061 26.1752 133.331 25.9664 133.331 25.5244C133.331 25.0948 133.061 24.8861 132.522 24.8861ZM132.533 28.2253C133.11 28.2253 133.405 27.9921 133.405 27.5256C133.405 27.0591 133.11 26.8258 132.533 26.8258H131.295V28.2253H132.533Z" fill="#151515"/>
<path d="M14.3534 8.44784L21.367 0.129395H14.5165L11.0097 4.77794L7.42136 0.129395H0.48932L7.58447 8.44784L0 17.5003H6.68738L10.9282 12.1993L15.0058 17.5003H21.8563L14.3534 8.44784Z" fill="#151515"/>
<path d="M31.1525 12.5245V4.2876H25.8516V17.4992H32.6205L38.0846 8.85459V17.4992H43.4671V4.2876H36.5351L31.1525 12.5245Z" fill="#151515"/>
<path d="M54.6395 8.36627C55.1289 8.12161 55.6997 7.9585 56.2706 7.9585C57.0862 7.9585 57.8201 8.1216 58.391 8.52937C58.9619 8.93714 59.2881 9.34491 59.6143 9.99733H64.8337C64.6706 8.77403 64.2628 7.87694 63.5289 6.97986C62.7949 6.08277 61.7347 5.34879 60.5114 4.85947C59.2881 4.37015 57.9017 4.12549 56.3522 4.12549C54.6395 4.12549 53.1716 4.4517 51.8667 5.02258C50.5619 5.59345 49.5832 6.40898 48.8493 7.46918C48.1153 8.52937 47.7891 9.75267 47.7891 11.1391C47.7891 12.5255 48.1153 13.7488 48.8493 14.809C49.5832 15.8692 50.5619 16.6847 51.8667 17.2556C53.1716 17.8265 54.6395 18.1527 56.3522 18.1527C57.9017 18.1527 59.2881 17.908 60.5114 17.4187C61.7347 16.9294 62.7949 16.1954 63.5289 15.2983C64.2628 14.4012 64.7522 13.5041 64.8337 12.2808H59.6143C59.2065 13.0964 58.9619 13.341 58.391 13.7488C57.8201 14.1566 57.1677 14.3197 56.2706 14.3197C55.6182 14.3197 55.0473 14.2381 54.6395 13.9935C54.1502 13.7488 53.824 13.4226 53.5794 12.9333C53.3347 12.4439 53.1716 11.8731 53.1716 11.2206C53.1716 10.5682 53.3347 9.99733 53.5794 9.50801C53.824 8.93714 54.1502 8.52937 54.6395 8.36627Z" fill="#151515"/>
<path d="M68.5859 4.2876V8.20216H73.6423V17.4992H79.0248V8.20216H83.9995V4.2876H68.5859Z" fill="#151515"/>
</svg>
