<svg xmlns="http://www.w3.org/2000/svg" width="110" height="110" viewBox="0 0 110 110" fill="none">
    <path d="M30.9378 100.833C24.9795 100.833 19.8614 98.6944 15.5837 94.4167C11.3059 90.1389 9.16699 85.0208 9.16699 79.0625C9.16699 73.1042 11.3059 67.9861 15.5837 63.7083C19.8614 59.4306 24.9795 57.2917 30.9378 57.2917C36.8962 57.2917 42.0142 59.4306 46.292 63.7083C50.5698 67.9861 52.7087 73.1042 52.7087 79.0625C52.7087 85.0208 50.5698 90.1389 46.292 94.4167C42.0142 98.6944 36.8962 100.833 30.9378 100.833ZM95.792 96.25L65.6566 66.1146C64.5871 66.9549 63.384 67.776 62.0472 68.5781C60.7104 69.3802 59.4309 70.0486 58.2087 70.5833C57.8267 69.5139 57.4066 68.4254 56.9482 67.3177C56.4899 66.2101 55.9552 65.1979 55.3441 64.2812C59.4691 62.6771 62.9639 60.0226 65.8284 56.3177C68.693 52.6128 70.1253 48.2014 70.1253 43.0833C70.1253 36.8958 67.9482 31.6059 63.5941 27.2135C59.2399 22.8212 53.9691 20.625 47.7816 20.625C41.5177 20.625 36.1896 22.8212 31.7972 27.2135C27.4048 31.6059 25.2087 36.8958 25.2087 43.0833C25.2087 44.3819 25.3423 45.7378 25.6097 47.151C25.8771 48.5642 26.2017 49.7674 26.5837 50.7604C25.5906 50.9132 24.483 51.1615 23.2607 51.5052C22.0385 51.849 20.9309 52.25 19.9378 52.7083C19.4031 51.3333 19.0021 49.8056 18.7347 48.125C18.4673 46.4444 18.3337 44.7639 18.3337 43.0833C18.3337 34.9097 21.1982 27.9774 26.9274 22.2865C32.6566 16.5955 39.608 13.75 47.7816 13.75C55.8788 13.75 62.7729 16.6146 68.4639 22.3438C74.1548 28.0729 77.0003 34.9861 77.0003 43.0833C77.0003 46.3681 76.4274 49.6146 75.2816 52.8229C74.1357 56.0312 72.5698 58.8194 70.5837 61.1875L100.834 91.2083L95.792 96.25ZM23.0316 89.8333L30.9378 81.9271L38.7295 89.7188L41.3649 87.0833L33.4587 79.1771L41.5941 71.0417L38.9587 68.4062L30.9378 76.4271L22.917 68.4062L20.2816 71.0417L28.3024 79.0625L20.2816 87.0833L23.0316 89.8333Z" fill="black"/>
</svg>