<svg xmlns="http://www.w3.org/2000/svg" width="92" height="92" viewBox="0 0 92 92" fill="none">
    <path d="M25.8743 84.3333C20.891 84.3333 16.6105 82.5444 13.0327 78.9667C9.4549 75.3889 7.66602 71.1083 7.66602 66.125C7.66602 61.1417 9.4549 56.8611 13.0327 53.2833C16.6105 49.7056 20.891 47.9167 25.8743 47.9167C30.8577 47.9167 35.1382 49.7056 38.716 53.2833C42.2938 56.8611 44.0827 61.1417 44.0827 66.125C44.0827 71.1083 42.2938 75.3889 38.716 78.9667C35.1382 82.5444 30.8577 84.3333 25.8743 84.3333ZM80.116 80.5L54.9118 55.2958C54.0174 55.9986 53.0112 56.6854 51.8931 57.3563C50.775 58.0271 49.7049 58.5861 48.6827 59.0333C48.3632 58.1389 48.0118 57.2285 47.6285 56.3021C47.2452 55.3757 46.798 54.5292 46.2868 53.7625C49.7368 52.4208 52.6598 50.2007 55.0556 47.1021C57.4514 44.0035 58.6493 40.3139 58.6493 36.0333C58.6493 30.8583 56.8285 26.434 53.1868 22.7604C49.5452 19.0868 45.1368 17.25 39.9618 17.25C34.723 17.25 30.2667 19.0868 26.5931 22.7604C22.9195 26.434 21.0827 30.8583 21.0827 36.0333C21.0827 37.1194 21.1945 38.2535 21.4181 39.4354C21.6417 40.6174 21.9132 41.6236 22.2327 42.4542C21.4021 42.5819 20.4757 42.7896 19.4535 43.0771C18.4313 43.3646 17.5049 43.7 16.6743 44.0833C16.2271 42.9333 15.8917 41.6556 15.6681 40.25C15.4445 38.8444 15.3327 37.4389 15.3327 36.0333C15.3327 29.1972 17.7285 23.3993 22.5202 18.6396C27.3118 13.8799 33.1257 11.5 39.9618 11.5C46.7341 11.5 52.5 13.8958 57.2598 18.6875C62.0195 23.4792 64.3993 29.2611 64.3993 36.0333C64.3993 38.7806 63.9202 41.4958 62.9618 44.1792C62.0035 46.8625 60.6938 49.1944 59.0327 51.175L84.3327 76.2833L80.116 80.5ZM19.2618 75.1333L25.8743 68.5208L32.391 75.0375L34.5952 72.8333L27.9827 66.2208L34.7868 59.4167L32.5827 57.2125L25.8743 63.9208L19.166 57.2125L16.9618 59.4167L23.6702 66.125L16.9618 72.8333L19.2618 75.1333Z" fill="black"/>
</svg>