<svg width="24" height="24" viewBox="0 0 24 24" fill="none" xmlns="http://www.w3.org/2000/svg">
<g id="icon/24/light/call_FILL1_wght400_GRAD0_opsz48">
<path id="Vector" d="M19.875 21C17.9417 21 15.9708 20.5333 13.9625 19.6C11.9542 18.6667 10.0917 17.3417 8.375 15.625C6.65833 13.9083 5.33333 12.0458 4.4 10.0375C3.46667 8.02917 3 6.05833 3 4.125C3 3.80833 3.10833 3.54167 3.325 3.325C3.54167 3.10833 3.80833 3 4.125 3H7.625C7.85833 3 8.05833 3.08333 8.225 3.25C8.39167 3.41667 8.50833 3.625 8.575 3.875L9.25 7.025C9.28333 7.25833 9.27917 7.47083 9.2375 7.6625C9.19583 7.85417 9.10833 8.01667 8.975 8.15L6.475 10.675C6.90833 11.4083 7.36667 12.0917 7.85 12.725C8.33333 13.3583 8.86667 13.9583 9.45 14.525C10.0667 15.1583 10.7167 15.7375 11.4 16.2625C12.0833 16.7875 12.8 17.25 13.55 17.65L15.925 15.2C16.0917 15.0167 16.2833 14.8917 16.5 14.825C16.7167 14.7583 16.9333 14.7417 17.15 14.775L20.125 15.425C20.375 15.4917 20.5833 15.625 20.75 15.825C20.9167 16.025 21 16.25 21 16.5V19.875C21 20.1917 20.8917 20.4583 20.675 20.675C20.4583 20.8917 20.1917 21 19.875 21Z" fill="#FCFCFC"/>
</g>
</svg>
