<svg width="96" height="94" viewBox="0 0 96 94" fill="none" xmlns="http://www.w3.org/2000/svg">
<path d="M40.92 68.385L74.88 35.1325L69.36 29.845L40.92 57.6925L26.52 43.5925L21.12 48.88L40.92 68.385ZM48 94C41.44 94 35.24 92.7663 29.4 90.2988C23.56 87.8313 18.46 84.4629 14.1 80.1938C9.74 75.9246 6.3 70.9308 3.78 65.2125C1.26 59.4942 0 53.4233 0 47C0 40.4983 1.26 34.3883 3.78 28.67C6.3 22.9517 9.74 17.9775 14.1 13.7475C18.46 9.5175 23.56 6.16875 29.4 3.70125C35.24 1.23375 41.44 0 48 0C54.64 0 60.88 1.23375 66.72 3.70125C72.56 6.16875 77.64 9.5175 81.96 13.7475C86.28 17.9775 89.7 22.9517 92.22 28.67C94.74 34.3883 96 40.4983 96 47C96 53.4233 94.74 59.4942 92.22 65.2125C89.7 70.9308 86.28 75.9246 81.96 80.1938C77.64 84.4629 72.56 87.8313 66.72 90.2988C60.88 92.7663 54.64 94 48 94ZM48 86.95C59.36 86.95 69 83.0529 76.92 75.2588C84.84 67.4646 88.8 58.045 88.8 47C88.8 35.8767 84.84 26.4375 76.92 18.6825C69 10.9275 59.36 7.05 48 7.05C36.72 7.05 27.1 10.9275 19.14 18.6825C11.18 26.4375 7.2 35.8767 7.2 47C7.2 58.045 11.18 67.4646 19.14 75.2588C27.1 83.0529 36.72 86.95 48 86.95Z" fill="#313131"/>
</svg>
